<svg xmlns:dc="http://purl.org/dc/elements/1.1/" xmlns:cc="http://creativecommons.org/ns#" xmlns:rdf="http://www.w3.org/1999/02/22-rdf-syntax-ns#" xmlns:svg="http://www.w3.org/2000/svg" xmlns="http://www.w3.org/2000/svg" version="1.1" width="60" height="56" viewBox="0 0 59.994999 55.994999" xml:space="preserve"><style>
	.style0{
		fill:	#ffffff;
		fill-rule:	evenodd;
	}
</style><metadata><rdf:RDF><cc:Work rdf:about=""><dc:format>image/svg+xml</dc:format><dc:type rdf:resource="http://purl.org/dc/dcmitype/StillImage"/><dc:title/></cc:Work></rdf:RDF></metadata><defs/>
<path d="M 50 40 H 10 c -1.1 0 -2 -0.9 -2 -2 0 -1.1 0.9 -2 2 -2 h 40 c 1.1 0 2 0.9 2 2 0 1.1 -0.9 2 -2 2 z m 0 -8 H 10 c -1.1 0 -2 -0.9 -2 -2 0 -1.1 0.9 -2 2 -2 h 40 c 1.1 0 2 0.9 2 2 0 1.1 -0.9 2 -2 2 z M 40 20 c -1.6 0 -3.1 0.5 -4.3 1.3 -1.2 -5.3 -6 -9.3 -11.7 -9.3 -6.6 0 -12 5.4 -12 12 H 8 C 8 15.2 15.2 8 24 8 c 6 0 11.2 3.3 14 8.2 0.7 -0.1 1.3 -0.2 2 -0.2 5.2 0 9.7 3.3 11.3 8 h -4.4 c -1.4 -2.4 -4 -4 -6.9 -4 z M 10 44 h 40 c 1.1 0 2 0.9 2 2 0 1.1 -0.9 2 -2 2 H 10 c -1.1 0 -2 -0.9 -2 -2 0 -1.1 0.9 -2 2 -2 z" class="style0"/>
</svg>