<?xml version="1.0" encoding="UTF-8" standalone="no"?>
<!-- Created with Inkscape (http://www.inkscape.org/) -->

<svg
   xmlns:dc="http://purl.org/dc/elements/1.1/"
   xmlns:cc="http://creativecommons.org/ns#"
   xmlns:rdf="http://www.w3.org/1999/02/22-rdf-syntax-ns#"
   xmlns:svg="http://www.w3.org/2000/svg"
   xmlns="http://www.w3.org/2000/svg"
   version="1.1"
   width="59.994999"
   height="59.995998"
   viewBox="0 0 59.994999 59.995998"
   id="Layer_1"
   xml:space="preserve"><metadata
   id="metadata3515"><rdf:RDF><cc:Work
       rdf:about=""><dc:format>image/svg+xml</dc:format><dc:type
         rdf:resource="http://purl.org/dc/dcmitype/StillImage" /><dc:title></dc:title></cc:Work></rdf:RDF></metadata><defs
   id="defs3513" />
<path
   d="m 43.996,39.298 v -4.381 c 2.389,-1.383 4,-3.961 4,-6.92 0,-4.417 -3.582,-7.999 -8,-7.999 -1.6,0 -3.082,0.48 -4.333,1.291 -1.231,-5.317 -5.974,-9.29 -11.665,-9.29 -6.626,0 -11.998,5.372 -11.998,11.998 0,3.55 1.551,6.728 4,8.925 v 4.916 C 11.223,35.07 8,29.916 8,23.997 8,15.162 15.163,8 23.998,8 c 6.004,0 11.229,3.311 13.965,8.203 0.664,-0.113 1.338,-0.205 2.033,-0.205 6.627,0 11.999,5.372 11.999,11.999 0,5.223 -3.341,9.653 -7.999,11.301 z m -21.997,-11.3 c 1.104,0 1.999,0.896 1.999,2 v 15.998 c 0,1.105 -0.895,2 -1.999,2 -1.104,0 -2,-0.895 -2,-2 V 29.998 c 0,-1.104 0.896,-2 2,-2 z m 7.999,4 c 1.104,0 2,0.895 2,2 v 15.998 c 0,1.104 -0.896,2 -2,2 -1.104,0 -2,-0.896 -2,-2 V 33.998 c 0,-1.106 0.896,-2 2,-2 z m 7.999,-4 c 1.104,0 1.999,0.896 1.999,2 v 15.998 c 0,1.105 -0.895,2 -1.999,2 -1.104,0 -2,-0.895 -2,-2 V 29.998 c 0,-1.104 0.896,-2 2,-2 z"
   id="path3509"
   style="fill:#ffffff;fill-rule:evenodd" />
</svg>