<?xml version="1.0" encoding="UTF-8" standalone="no"?>
<!-- Created with Inkscape (http://www.inkscape.org/) -->

<svg
   xmlns:dc="http://purl.org/dc/elements/1.1/"
   xmlns:cc="http://creativecommons.org/ns#"
   xmlns:rdf="http://www.w3.org/1999/02/22-rdf-syntax-ns#"
   xmlns:svg="http://www.w3.org/2000/svg"
   xmlns="http://www.w3.org/2000/svg"
   version="1.1"
   width="59.993999"
   height="59.994999"
   viewBox="0 0 59.993999 59.994999"
   id="Layer_1"
   xml:space="preserve"><metadata
   id="metadata3054"><rdf:RDF><cc:Work
       rdf:about=""><dc:format>image/svg+xml</dc:format><dc:type
         rdf:resource="http://purl.org/dc/dcmitype/StillImage" /><dc:title></dc:title></cc:Work></rdf:RDF></metadata><defs
   id="defs3052" />
<path
   d="m 43.996,39.299 v -4.381 c 2.387,-1.385 3.998,-3.961 3.998,-6.92 0,-4.418 -3.58,-8 -7.998,-8 -1.602,0 -3.084,0.481 -4.334,1.291 -1.232,-5.316 -5.973,-9.29 -11.664,-9.29 -6.627,0 -11.998,5.372 -11.998,11.999 0,3.549 1.549,6.729 3.998,8.926 v 4.914 C 11.221,35.07 8,29.916 8,23.998 8,15.162 15.162,8 23.998,8 c 6.004,0 11.229,3.312 13.965,8.203 0.664,-0.113 1.336,-0.205 2.033,-0.205 6.627,0 11.998,5.373 11.998,12 0,5.221 -3.341,9.653 -7.998,11.301 z m -21.998,-11.3 c 1.104,0 2,0.895 2,2 v 3.998 c 0,1.105 -0.896,2 -2,2 -1.105,0 -2,-0.895 -2,-2 v -3.998 c 0,-1.106 0.895,-2 2,-2 z m 0,11.998 c 1.104,0 2,0.895 2,2 v 3.998 c 0,1.105 -0.896,2 -2,2 -1.105,0 -2,-0.895 -2,-2 v -3.998 c 0,-1.106 0.895,-2 2,-2 z m 7.998,-8 c 1.105,0 2,0.896 2,2 v 4 c 0,1.104 -0.895,2 -2,2 -1.104,0 -1.998,-0.896 -1.998,-2 v -4 c 0,-1.104 0.895,-2 1.998,-2 z m 0,12 c 1.105,0 2,0.895 2,1.998 v 4 c 0,1.105 -0.895,2 -2,2 -1.104,0 -1.998,-0.895 -1.998,-2 v -4 c 0,-1.104 0.895,-1.998 1.998,-1.998 z m 8,-15.998 c 1.104,0 2,0.895 2,2 v 3.998 c 0,1.105 -0.896,2 -2,2 -1.105,0 -2,-0.895 -2,-2 v -3.998 c 0,-1.106 0.895,-2 2,-2 z m 0,11.998 c 1.104,0 2,0.895 2,2 v 3.998 c 0,1.105 -0.896,2 -2,2 -1.105,0 -2,-0.895 -2,-2 v -3.998 c 0,-1.106 0.895,-2 2,-2 z"
   id="path3048"
   style="fill:#ffffff;fill-rule:evenodd" />
</svg>