<svg xmlns:dc="http://purl.org/dc/elements/1.1/" xmlns:cc="http://creativecommons.org/ns#" xmlns:rdf="http://www.w3.org/1999/02/22-rdf-syntax-ns#" xmlns:svg="http://www.w3.org/2000/svg" xmlns="http://www.w3.org/2000/svg" version="1.1" width="70" height="64" viewBox="0 0 69.992996 63.993999" xml:space="preserve"><style>
	.style0{
		fill:	#ffffff;
		fill-rule:	evenodd;
	}
</style><metadata><rdf:RDF><cc:Work rdf:about=""><dc:format>image/svg+xml</dc:format><dc:type rdf:resource="http://purl.org/dc/dcmitype/StillImage"/><dc:title/></cc:Work></rdf:RDF></metadata><defs/>
<path d="m 60 34 h -4 c -1.1 0 -2 -0.9 -2 -2 0 -1.1 0.9 -2 2 -2 h 4 c 1.1 0 2 0.9 2 2 0 1.1 -0.9 2 -2 2 z M 52.1 20.7 c -0.8 0.8 -2 0.8 -2.8 0 -0.8 -0.8 -0.8 -2 0 -2.8 l 2.8 -2.8 c 0.8 -0.8 2 -0.8 2.8 0 0.8 0.8 0.8 2 0 2.8 l -2.8 2.8 z m -2.9 15.6 0 0 c 1.7 2.1 2.8 4.8 2.8 7.7 0 6.6 -5.4 12 -12 12 -2.8 0 -12.8 0 -16 0 C 15.2 56 8 48.8 8 40 8 31.2 15.2 24 24 24 c 1.6 0 3.1 0.2 4.5 0.7 2.2 -2.8 5.6 -4.7 9.5 -4.7 6.6 0 12 5.4 12 12 -0 1.5 -0.3 3 -0.8 4.3 z m -37.2 3.7 c 0 6.6 5.4 12 12 12 3.6 0 13 0 16 0 4.4 0 8 -3.6 8 -8 0 -4.4 -3.6 -8 -8 -8 -1.6 0 -3.1 0.5 -4.3 1.3 -1.2 -5.3 -6 -9.3 -11.7 -9.3 -6.6 0 -12 5.4 -12 12 z M 38 24 c -2.2 0 -4.2 0.9 -5.7 2.3 2.3 1.4 4.3 3.5 5.6 5.9 0.7 -0.1 1.3 -0.2 2 -0.2 2.1 0 4.1 0.6 5.8 1.5 l 0 0 c 0.1 -0.5 0.1 -1 0.1 -1.5 0 -4.4 -3.6 -8 -8 -8 z m 0 -8 c -1.1 0 -2 -0.9 -2 -2 V 10 c 0 -1.1 0.9 -2 2 -2 1.1 0 2 0.9 2 2 v 4 c 0 1.1 -0.9 2 -2 2 z m -14.1 4.7 -2.8 -2.8 c -0.8 -0.8 -0.8 -2 0 -2.8 0.8 -0.8 2 -0.8 2.8 0 l 2.8 2.8 c 0.8 0.8 0.8 2 0 2.8 -0.8 0.8 -2 0.8 -2.8 0 z" class="style0"/>
</svg>