<?xml version="1.0" encoding="UTF-8" standalone="no"?>
<!-- Created with Inkscape (http://www.inkscape.org/) -->

<svg
   xmlns:dc="http://purl.org/dc/elements/1.1/"
   xmlns:cc="http://creativecommons.org/ns#"
   xmlns:rdf="http://www.w3.org/1999/02/22-rdf-syntax-ns#"
   xmlns:svg="http://www.w3.org/2000/svg"
   xmlns="http://www.w3.org/2000/svg"
   version="1.1"
   width="59.994999"
   height="59.995998"
   viewBox="0 0 59.994999 59.995998"
   id="Layer_1"
   xml:space="preserve"><metadata
   id="metadata3479"><rdf:RDF><cc:Work
       rdf:about=""><dc:format>image/svg+xml</dc:format><dc:type
         rdf:resource="http://purl.org/dc/dcmitype/StillImage" /><dc:title></dc:title></cc:Work></rdf:RDF></metadata><defs
   id="defs3477" />
<path
   d="m 39.995,39.998 c -0.28,0 -0.649,0 -1.062,0 l 3.585,-4.412 c 3.181,-1.057 5.477,-4.053 5.477,-7.588 C 47.995,23.58 44.414,20 39.996,20 38.395,20 36.913,20.48 35.663,21.29 34.431,15.974 29.689,12 23.998,12 17.372,12 12,17.372 12,24 c 0,5.446 3.632,10.038 8.604,11.504 l -1.349,3.777 C 12.735,37.26 8,31.183 8,23.999 8,15.164 15.163,8 23.998,8 c 6.004,0 11.229,3.312 13.965,8.204 0.664,-0.114 1.337,-0.205 2.033,-0.205 6.627,0 11.999,5.371 11.999,11.998 0,6.627 -5.373,12.001 -12,12.001 z m -11.998,-14 h 9.998 l -5.999,10 h 6.999 l -12.998,15.998 3.6,-11.998 h -6.6 l 5,-14 z"
   id="path3473"
   style="fill:#ffffff;fill-rule:evenodd" />
</svg>