<?xml version="1.0" encoding="UTF-8" standalone="no"?>
<!-- Created with Inkscape (http://www.inkscape.org/) -->

<svg
   xmlns:dc="http://purl.org/dc/elements/1.1/"
   xmlns:cc="http://creativecommons.org/ns#"
   xmlns:rdf="http://www.w3.org/1999/02/22-rdf-syntax-ns#"
   xmlns:svg="http://www.w3.org/2000/svg"
   xmlns="http://www.w3.org/2000/svg"
   version="1.1"
   width="59.994999"
   height="55.995998"
   viewBox="0 0 59.994999 55.995998"
   id="Layer_1"
   xml:space="preserve"><metadata
   id="metadata3555"><rdf:RDF><cc:Work
       rdf:about=""><dc:format>image/svg+xml</dc:format><dc:type
         rdf:resource="http://purl.org/dc/dcmitype/StillImage" /><dc:title></dc:title></cc:Work></rdf:RDF></metadata><defs
   id="defs3553" />
<path
   d="m 43.996,39.3 v -4.381 c 2.389,-1.385 3.999,-3.963 3.999,-6.922 0,-4.416 -3.581,-7.998 -7.999,-7.998 -1.6,0 -3.083,0.48 -4.333,1.291 -1.231,-5.317 -5.974,-9.291 -11.665,-9.291 -6.627,0 -11.998,5.373 -11.998,12 0,3.549 1.55,6.729 4,8.924 v 4.916 C 11.223,35.071 8,29.917 8,23.999 8,15.163 15.163,8 23.998,8 c 6.004,0 11.229,3.312 13.965,8.204 0.664,-0.113 1.337,-0.205 2.033,-0.205 6.627,0 11.999,5.373 11.999,11.998 0,5.223 -3.343,9.653 -7.999,11.303 z M 21.998,31.998 c 1.105,0 2,0.896 2,2 0,1.105 -0.895,2 -2,2 -1.104,0 -1.999,-0.895 -1.999,-2 0,-1.104 0.895,-2 1.999,-2 z m 0,8 c 1.105,0 2,0.895 2,2 0,1.104 -0.895,1.998 -2,1.998 -1.104,0 -1.999,-0.895 -1.999,-1.998 0,-1.106 0.895,-2 1.999,-2 z m 8,-4 c 1.104,0 2,0.895 2,2 0,1.104 -0.896,2 -2,2 -1.105,0 -2,-0.896 -2,-2 0,-1.106 0.895,-2 2,-2 z m 0,7.998 c 1.104,0 2,0.896 2,2 0,1.105 -0.896,2 -2,2 -1.105,0 -2,-0.895 -2,-2 0,-1.104 0.895,-2 2,-2 z m 7.998,-11.998 c 1.105,0 2,0.896 2,2 0,1.105 -0.895,2 -2,2 -1.104,0 -1.999,-0.895 -1.999,-2 0,-1.104 0.896,-2 1.999,-2 z m 0,8 c 1.105,0 2,0.895 2,2 0,1.104 -0.895,1.998 -2,1.998 -1.104,0 -1.999,-0.895 -1.999,-1.998 0,-1.106 0.896,-2 1.999,-2 z"
   id="path3549"
   style="fill:#ffffff;fill-rule:evenodd" />
</svg>