<?xml version="1.0" encoding="UTF-8" standalone="no"?>
<!-- Created with Inkscape (http://www.inkscape.org/) -->

<svg
   xmlns:dc="http://purl.org/dc/elements/1.1/"
   xmlns:cc="http://creativecommons.org/ns#"
   xmlns:rdf="http://www.w3.org/1999/02/22-rdf-syntax-ns#"
   xmlns:svg="http://www.w3.org/2000/svg"
   xmlns="http://www.w3.org/2000/svg"
   version="1.1"
   width="59.994999"
   height="47.995998"
   viewBox="0 0 59.994999 47.995998"
   id="Layer_1"
   xml:space="preserve"><metadata
   id="metadata3057"><rdf:RDF><cc:Work
       rdf:about=""><dc:format>image/svg+xml</dc:format><dc:type
         rdf:resource="http://purl.org/dc/dcmitype/StillImage" /><dc:title></dc:title></cc:Work></rdf:RDF></metadata><defs
   id="defs3055" />
<path
   d="M 23.998,39.996 C 15.163,39.996 8,32.834 8,23.998 8,15.162 15.163,7.9999997 23.998,7.9999997 c 6.004,0 11.229,3.3120003 13.965,8.2030003 0.664,-0.113 1.338,-0.205 2.033,-0.205 6.627,0 11.999,5.373 11.999,12 0,6.625 -5.372,11.998 -11.999,11.998 -2.775,0 -12.8,0 -15.998,0 z m 15.998,-4 c 4.418,0 8,-3.582 8,-7.998 0,-4.418 -3.582,-8 -8,-8 -1.6,0 -3.082,0.481 -4.333,1.291 -1.231,-5.316 -5.974,-9.29 -11.665,-9.29 -6.626,0 -11.998,5.372 -11.998,11.999 0,6.626 5.372,11.998 11.998,11.998 3.617,0 12.979,0 15.998,0 z"
   id="path3051"
   style="fill:#ffffff;fill-rule:evenodd" />
</svg>