<?xml version="1.0" encoding="UTF-8" standalone="no"?>
<!-- Created with Inkscape (http://www.inkscape.org/) -->

<svg
   xmlns:dc="http://purl.org/dc/elements/1.1/"
   xmlns:cc="http://creativecommons.org/ns#"
   xmlns:rdf="http://www.w3.org/1999/02/22-rdf-syntax-ns#"
   xmlns:svg="http://www.w3.org/2000/svg"
   xmlns="http://www.w3.org/2000/svg"
   version="1.1"
   width="69.992996"
   height="63.993999"
   viewBox="0 0 69.992996 63.993999"
   id="Layer_1"
   xml:space="preserve"><metadata
   id="metadata3582"><rdf:RDF><cc:Work
       rdf:about=""><dc:format>image/svg+xml</dc:format><dc:type
         rdf:resource="http://purl.org/dc/dcmitype/StillImage" /><dc:title></dc:title></cc:Work></rdf:RDF></metadata><defs
   id="defs3580" />
<path
   d="m 59.993,33.996 h -4 c -1.104,0 -2,-0.895 -2,-2 0,-1.104 0.896,-1.998 2,-1.998 h 4 c 1.104,0 2,0.895 2,1.998 0,1.105 -0.896,2 -2,2 z M 52.136,20.684 c -0.781,0.781 -2.047,0.781 -2.828,0 -0.781,-0.78 -0.781,-2.047 0,-2.827 l 2.828,-2.828 c 0.781,-0.781 2.047,-0.781 2.828,0 0.781,0.78 0.781,2.047 0,2.828 l -2.828,2.827 z m -2.947,15.607 0,0 c 1.749,2.086 2.806,4.77 2.806,7.705 0,6.625 -5.372,11.998 -11.999,11.998 -2.775,0 -12.801,0 -15.998,0 C 15.163,55.994 8,48.832 8,39.996 8,31.16 15.163,23.998 23.998,23.998 c 1.572,0 3.09,0.232 4.523,0.654 2.195,-2.827 5.618,-4.654 9.475,-4.654 6.627,0 11.999,5.373 11.999,11.998 -10e-4,1.515 -0.294,2.961 -0.806,4.295 z m -37.19,3.705 c 0,6.627 5.371,11.998 11.998,11.998 3.616,0 12.979,0 15.998,0 4.418,0 7.999,-3.582 7.999,-7.998 0,-4.418 -3.581,-8 -7.999,-8 -1.6,0 -3.083,0.482 -4.333,1.291 -1.231,-5.316 -5.974,-9.289 -11.665,-9.289 -6.627,0 -11.998,5.371 -11.998,11.998 z M 37.995,23.998 c -2.212,0 -4.215,0.898 -5.662,2.349 2.34,1.436 4.285,3.453 5.629,5.854 0.664,-0.113 1.337,-0.205 2.033,-0.205 2.125,0 4.119,0.559 5.85,1.527 l 0,0 c 0.096,-0.494 0.15,-1.004 0.15,-1.527 0,-4.416 -3.582,-7.998 -8,-7.998 z m 0,-8 c -1.104,0 -1.999,-0.895 -1.999,-1.999 V 10 c 0,-1.105 0.896,-2 1.999,-2 1.105,0 2,0.895 2,2 v 3.999 c 0,1.105 -0.894,1.999 -2,1.999 z m -14.14,4.686 -2.827,-2.827 c -0.781,-0.781 -0.781,-2.048 0,-2.828 0.78,-0.781 2.047,-0.781 2.827,0 l 2.828,2.828 c 0.781,0.78 0.781,2.047 0,2.827 -0.78,0.781 -2.047,0.781 -2.828,0 z"
   id="path3576"
   style="fill:#ffffff;fill-rule:evenodd" />
</svg>