<?xml version="1.0" encoding="UTF-8" standalone="no"?>
<!-- Created with Inkscape (http://www.inkscape.org/) -->

<svg
   xmlns:dc="http://purl.org/dc/elements/1.1/"
   xmlns:cc="http://creativecommons.org/ns#"
   xmlns:rdf="http://www.w3.org/1999/02/22-rdf-syntax-ns#"
   xmlns:svg="http://www.w3.org/2000/svg"
   xmlns="http://www.w3.org/2000/svg"
   version="1.1"
   width="59.994999"
   height="55.994999"
   viewBox="0 0 59.994999 55.994999"
   id="Layer_1"
   xml:space="preserve"><metadata
   id="metadata3344"><rdf:RDF><cc:Work
       rdf:about=""><dc:format>image/svg+xml</dc:format><dc:type
         rdf:resource="http://purl.org/dc/dcmitype/StillImage" /><dc:title></dc:title></cc:Work></rdf:RDF></metadata><defs
   id="defs3342" />
<path
   d="M 49.995,39.997 H 10 c -1.104,0 -2,-0.896 -2,-2 0,-1.105 0.896,-2 2,-2 h 39.995 c 1.104,0 2,0.895 2,2 0,1.103 -0.895,2 -2,2 z m 0,-8 H 10 c -1.104,0 -2,-0.895 -2,-2 0,-1.104 0.896,-2 2,-2 h 39.995 c 1.104,0 2,0.896 2,2 0,1.105 -0.895,2 -2,2 z M 39.996,19.999 c -1.601,0 -3.083,0.48 -4.333,1.291 -1.232,-5.317 -5.974,-9.291 -11.665,-9.291 -6.626,0 -11.998,5.373 -11.998,12 H 8 C 8,15.164 15.163,8 23.998,8 c 6.004,0 11.229,3.312 13.965,8.204 0.664,-0.113 1.337,-0.205 2.033,-0.205 5.222,0 9.652,3.342 11.301,8 h -4.381 c -1.384,-2.39 -3.961,-4 -6.92,-4 z M 10,43.995 h 39.995 c 1.104,0 2,0.896 2,2 0,1.105 -0.896,2 -2,2 H 10 c -1.104,0 -2,-0.895 -2,-2 0,-1.104 0.895,-2 2,-2 z"
   id="path3338"
   style="fill:#ffffff;fill-rule:evenodd" />
</svg>