<svg xmlns:dc="http://purl.org/dc/elements/1.1/" xmlns:cc="http://creativecommons.org/ns#" xmlns:rdf="http://www.w3.org/1999/02/22-rdf-syntax-ns#" xmlns:svg="http://www.w3.org/2000/svg" xmlns="http://www.w3.org/2000/svg" version="1.1" width="61" height="55" viewBox="0 0 60.993999 54.995998" xml:space="preserve"><style>
	.style0{
		fill:	#ffffff;
		fill-rule:	evenodd;
	}
</style><metadata><rdf:RDF><cc:Work rdf:about=""><dc:format>image/svg+xml</dc:format><dc:type rdf:resource="http://purl.org/dc/dcmitype/StillImage"/><dc:title/></cc:Work></rdf:RDF></metadata><defs/>
<path d="m 49.8 28.1 0 0 c 1.4 1.9 2.2 4.3 2.2 6.9 0 6.6 -5.4 12 -12 12 -2.8 0 -12.8 0 -16 0 C 15.2 47 8 39.8 8 31 8 22.2 15.2 15 24 15 c 2 0 3.9 0.4 5.7 1 l 0 0 C 31.3 11.4 35.8 8 41 8 c 0.8 0 1.5 0.1 2.2 0.2 -0.1 0.6 -0.2 1.2 -0.2 1.8 0 4.4 3.6 8 8 8 0.6 0 1.2 -0.1 1.8 -0.2 0.1 0.7 0.2 1.5 0.2 2.2 -0 3.1 -1.2 6 -3.2 8.1 z m -37.8 2.9 c 0 6.6 5.4 12 12 12 3.6 0 13 0 16 0 4.4 0 8 -3.6 8 -8 0 -4.4 -3.6 -8 -8 -8 -1.6 0 -3.1 0.5 -4.3 1.3 -1.2 -5.3 -6 -9.3 -11.7 -9.3 -6.6 0 -12 5.4 -12 12 z M 31.5 16.9 c 0 0 0 0 0 0 0 0 -0 0 -0 0 z m 7.7 -4.7 c -2.9 0.7 -5.2 2.9 -5.9 5.8 l 0 0 c 1.9 1.4 3.5 3.2 4.7 5.2 0.7 -0.1 1.3 -0.2 2 -0.2 2.6 0 5 0.8 7 2.3 l 0 0 c 0.9 -1 1.5 -2.2 1.8 -3.5 -4.9 -0.9 -8.7 -4.7 -9.6 -9.6 z" class="style0"/>
</svg>