<svg xmlns:dc="http://purl.org/dc/elements/1.1/" xmlns:cc="http://creativecommons.org/ns#" xmlns:rdf="http://www.w3.org/1999/02/22-rdf-syntax-ns#" xmlns:svg="http://www.w3.org/2000/svg" xmlns="http://www.w3.org/2000/svg" version="1.1" width="60" height="48" viewBox="0 0 59.994999 47.995998" xml:space="preserve"><style>
	.style0{
		fill:	#ffffff;
		fill-rule:	evenodd;
	}
</style><metadata><rdf:RDF><cc:Work rdf:about=""><dc:format>image/svg+xml</dc:format><dc:type rdf:resource="http://purl.org/dc/dcmitype/StillImage"/><dc:title/></cc:Work></rdf:RDF></metadata><defs/>
<path d="M 24 40 C 15.2 40 8 32.8 8 24 8 15.2 15.2 8 24 8 c 6 0 11.2 3.3 14 8.2 0.7 -0.1 1.3 -0.2 2 -0.2 6.6 0 12 5.4 12 12 0 6.6 -5.4 12 -12 12 -2.8 0 -12.8 0 -16 0 z m 16 -4 c 4.4 0 8 -3.6 8 -8 0 -4.4 -3.6 -8 -8 -8 -1.6 0 -3.1 0.5 -4.3 1.3 -1.2 -5.3 -6 -9.3 -11.7 -9.3 -6.6 0 -12 5.4 -12 12 0 6.6 5.4 12 12 12 3.6 0 13 0 16 0 z" class="style0"/>
</svg>