<?xml version="1.0" encoding="UTF-8" standalone="no"?>
<!-- Created with Inkscape (http://www.inkscape.org/) -->

<svg
   xmlns:dc="http://purl.org/dc/elements/1.1/"
   xmlns:cc="http://creativecommons.org/ns#"
   xmlns:rdf="http://www.w3.org/1999/02/22-rdf-syntax-ns#"
   xmlns:svg="http://www.w3.org/2000/svg"
   xmlns="http://www.w3.org/2000/svg"
   version="1.1"
   width="43.997002"
   height="33.997002"
   viewBox="0 0 43.997002 33.997002"
   id="Layer_1"
   xml:space="preserve"><metadata
   id="metadata2993"><rdf:RDF><cc:Work
       rdf:about=""><dc:format>image/svg+xml</dc:format><dc:type
         rdf:resource="http://purl.org/dc/dcmitype/StillImage" /><dc:title></dc:title></cc:Work></rdf:RDF></metadata><defs
   id="defs2991" />
<path
   d="m 34.996,12.999 c 0,-2.209 -1.791,-4 -4,-4 -2.209,0 -4,1.791 -4,4 v 3.999 h 8 v 4 h -8 v 7.999 h -3.998 v -7.999 -4 -3.999 C 22.998,8.581 26.579,5 30.997,5 c 4.418,0 8,3.581 8,7.999 H 34.996 z M 11.998,18.998 C 8.133,18.998 5,15.864 5,11.999 5,8.134 8.133,5 11.998,5 c 3.865,0 7,3.134 7,6.999 0,3.865 -3.134,6.999 -7,6.999 z m 0,-9.999 c -1.656,0 -2.999,1.344 -2.999,3 0,1.656 1.343,3 2.999,3 1.657,0 3,-1.344 3,-3 0,-1.656 -1.342,-3 -3,-3 z"
   id="path2987"
   style="fill:#ffffff;fill-rule:evenodd" />
</svg>