<?xml version="1.0" encoding="utf-8"?>
<!-- Generator: Adobe Illustrator 18.0.0, SVG Export Plug-In . SVG Version: 6.00 Build 0)  -->
<!DOCTYPE svg PUBLIC "-//W3C//DTD SVG 1.1//EN" "http://www.w3.org/Graphics/SVG/1.1/DTD/svg11.dtd">
<svg version="1.1" id="Layer_1" xmlns="http://www.w3.org/2000/svg" xmlns:xlink="http://www.w3.org/1999/xlink" x="0px" y="0px"
	 viewBox="0 0 36 36" enable-background="new 0 0 36 36" xml:space="preserve">
<g id="remove_x5F_2_1_">
	<path fill="#ffffff" d="M24.4,18L35.7,6.7c0.4-0.4,0.4-1.2,0-1.6l-4.8-4.8c-0.4-0.4-1.2-0.4-1.6,0L18,11.6L6.7,0.3
		c-0.4-0.4-1.2-0.4-1.6,0L0.3,5.1c-0.4,0.4-0.4,1.2,0,1.6L11.6,18L0.3,29.3c-0.4,0.4-0.4,1.2,0,1.6l4.8,4.8c0.4,0.4,1.2,0.4,1.6,0
		L18,24.4l11.3,11.3c0.4,0.4,1.2,0.4,1.6,0l4.8-4.8c0.4-0.4,0.4-1.2,0-1.6L24.4,18z"/>
</g>
</svg>
