<svg xmlns:dc="http://purl.org/dc/elements/1.1/" xmlns:cc="http://creativecommons.org/ns#" xmlns:rdf="http://www.w3.org/1999/02/22-rdf-syntax-ns#" xmlns:svg="http://www.w3.org/2000/svg" xmlns="http://www.w3.org/2000/svg" version="1.1" width="64" height="64" viewBox="0 0 63.993999 63.993999" xml:space="preserve"><style>
	.style0{
		fill:	#ffffff;
		fill-rule:	evenodd;
	}
</style><metadata><rdf:RDF><cc:Work rdf:about=""><dc:format>image/svg+xml</dc:format><dc:type rdf:resource="http://purl.org/dc/dcmitype/StillImage"/><dc:title/></cc:Work></rdf:RDF></metadata><defs/>
<path d="m 54 34 h -4 c -1.1 0 -2 -0.9 -2 -2 0 -1.1 0.9 -2 2 -2 h 4 c 1.1 0 2 0.9 2 2 0 1.1 -0.9 2 -2 2 z M 46.1 20.7 c -0.8 0.8 -2 0.8 -2.8 0 -0.8 -0.8 -0.8 -2 0 -2.8 l 2.8 -2.8 c 0.8 -0.8 2 -0.8 2.8 0 0.8 0.8 0.8 2 0 2.8 l -2.8 2.8 z m -14.1 23.3 c -6.6 0 -12 -5.4 -12 -12 0 -6.6 5.4 -12 12 -12 6.6 0 12 5.4 12 12 0 6.6 -5.4 12 -12 12 z m 0 -20 c -4.4 0 -8 3.6 -8 8 0 4.4 3.6 8 8 8 4.4 0 8 -3.6 8 -8 0 -4.4 -3.6 -8 -8 -8 z m 0 -8 c -1.1 0 -2 -0.9 -2 -2 V 10 c 0 -1.1 0.9 -2 2 -2 1.1 0 2 0.9 2 2 v 4 c 0 1.1 -0.9 2 -2 2 z m -14.1 4.7 -2.8 -2.8 c -0.8 -0.8 -0.8 -2 0 -2.8 0.8 -0.8 2 -0.8 2.8 0 l 2.8 2.8 c 0.8 0.8 0.8 2 0 2.8 -0.8 0.8 -2 0.8 -2.8 0 z m -1.9 11.3 c 0 1.1 -0.9 2 -2 2 h -4 C 8.9 34 8 33.1 8 32 c 0 -1.1 0.9 -2 2 -2 h 4 c 1.1 0 2 0.9 2 2 z m 1.9 11.3 c 0.8 -0.8 2 -0.8 2.8 0 0.8 0.8 0.8 2 0 2.8 l -2.8 2.8 c -0.8 0.8 -2 0.8 -2.8 0 -0.8 -0.8 -0.8 -2 0 -2.8 l 2.8 -2.8 z m 14.1 4.7 c 1.1 0 2 0.9 2 2 v 4 c 0 1.1 -0.9 2 -2 2 -1.1 0 -2 -0.9 -2 -2 v -4 c 0 -1.1 0.9 -2 2 -2 z m 14.1 -4.7 2.8 2.8 c 0.8 0.8 0.8 2 0 2.8 -0.8 0.8 -2 0.8 -2.8 0 l -2.8 -2.8 c -0.8 -0.8 -0.8 -2 0 -2.8 0.8 -0.8 2 -0.8 2.8 0 z" class="style0"/>
</svg>