<svg xmlns:dc="http://purl.org/dc/elements/1.1/" xmlns:cc="http://creativecommons.org/ns#" xmlns:rdf="http://www.w3.org/1999/02/22-rdf-syntax-ns#" xmlns:svg="http://www.w3.org/2000/svg" xmlns="http://www.w3.org/2000/svg" version="1.1" width="60" height="60" viewBox="0 0 59.994999 59.995998" xml:space="preserve"><style>
	.style0{
		fill:	#ffffff;
		fill-rule:	evenodd;
	}
</style><metadata><rdf:RDF><cc:Work rdf:about=""><dc:format>image/svg+xml</dc:format><dc:type rdf:resource="http://purl.org/dc/dcmitype/StillImage"/><dc:title/></cc:Work></rdf:RDF></metadata><defs/>
<path d="m 40 40 c -0.3 0 -0.6 0 -1.1 0 l 3.6 -4.4 c 3.2 -1.1 5.5 -4.1 5.5 -7.6 C 48 23.6 44.4 20 40 20 38.4 20 36.9 20.5 35.7 21.3 34.4 16 29.7 12 24 12 17.4 12 12 17.4 12 24 c 0 5.4 3.6 10 8.6 11.5 l -1.3 3.8 C 12.7 37.3 8 31.2 8 24 8 15.2 15.2 8 24 8 c 6 0 11.2 3.3 14 8.2 0.7 -0.1 1.3 -0.2 2 -0.2 6.6 0 12 5.4 12 12 0 6.6 -5.4 12 -12 12 z m -12 -14 h 10 l -6 10 h 7 l -13 16 3.6 -12 h -6.6 l 5 -14 z" class="style0"/>
</svg>