<svg xmlns:dc="http://purl.org/dc/elements/1.1/" xmlns:cc="http://creativecommons.org/ns#" xmlns:rdf="http://www.w3.org/1999/02/22-rdf-syntax-ns#" xmlns:svg="http://www.w3.org/2000/svg" xmlns="http://www.w3.org/2000/svg" version="1.1" width="60" height="60" viewBox="0 0 59.993999 59.994999" xml:space="preserve"><style>
	.style0{
		fill:	#ffffff;
		fill-rule:	evenodd;
	}
</style><metadata><rdf:RDF><cc:Work rdf:about=""><dc:format>image/svg+xml</dc:format><dc:type rdf:resource="http://purl.org/dc/dcmitype/StillImage"/><dc:title/></cc:Work></rdf:RDF></metadata><defs/>
<path d="m 44 39.3 v -4.4 c 2.4 -1.4 4 -4 4 -6.9 0 -4.4 -3.6 -8 -8 -8 -1.6 0 -3.1 0.5 -4.3 1.3 -1.2 -5.3 -6 -9.3 -11.7 -9.3 -6.6 0 -12 5.4 -12 12 0 3.5 1.5 6.7 4 8.9 v 4.9 C 11.2 35.1 8 29.9 8 24 8 15.2 15.2 8 24 8 c 6 0 11.2 3.3 14 8.2 0.7 -0.1 1.3 -0.2 2 -0.2 6.6 0 12 5.4 12 12 0 5.2 -3.3 9.7 -8 11.3 z m -22 -11.3 c 1.1 0 2 0.9 2 2 v 4 c 0 1.1 -0.9 2 -2 2 -1.1 0 -2 -0.9 -2 -2 v -4 c 0 -1.1 0.9 -2 2 -2 z m 0 12 c 1.1 0 2 0.9 2 2 v 4 c 0 1.1 -0.9 2 -2 2 -1.1 0 -2 -0.9 -2 -2 v -4 c 0 -1.1 0.9 -2 2 -2 z m 8 -8 c 1.1 0 2 0.9 2 2 v 4 c 0 1.1 -0.9 2 -2 2 -1.1 0 -2 -0.9 -2 -2 v -4 c 0 -1.1 0.9 -2 2 -2 z m 0 12 c 1.1 0 2 0.9 2 2 v 4 c 0 1.1 -0.9 2 -2 2 -1.1 0 -2 -0.9 -2 -2 v -4 c 0 -1.1 0.9 -2 2 -2 z m 8 -16 c 1.1 0 2 0.9 2 2 v 4 c 0 1.1 -0.9 2 -2 2 -1.1 0 -2 -0.9 -2 -2 v -4 c 0 -1.1 0.9 -2 2 -2 z m 0 12 c 1.1 0 2 0.9 2 2 v 4 c 0 1.1 -0.9 2 -2 2 -1.1 0 -2 -0.9 -2 -2 v -4 c 0 -1.1 0.9 -2 2 -2 z" class="style0"/>
</svg>