<svg xmlns:dc="http://purl.org/dc/elements/1.1/" xmlns:cc="http://creativecommons.org/ns#" xmlns:rdf="http://www.w3.org/1999/02/22-rdf-syntax-ns#" xmlns:svg="http://www.w3.org/2000/svg" xmlns="http://www.w3.org/2000/svg" version="1.1" width="48" height="48" viewBox="0 0 47.997002 47.997002" xml:space="preserve"><style>
	.style0{
		fill:	#ffffff;
		fill-rule:	evenodd;
	}
</style><metadata><rdf:RDF><cc:Work rdf:about=""><dc:format>image/svg+xml</dc:format><dc:type rdf:resource="http://purl.org/dc/dcmitype/StillImage"/><dc:title/></cc:Work></rdf:RDF></metadata><defs/>
<path d="M 24 36 C 17.4 36 12 30.6 12 24 12 17.4 17.4 12 24 12 c 0.8 0 1.5 0.1 2.2 0.2 -0.1 0.6 -0.2 1.2 -0.2 1.8 0 4.4 3.6 8 8 8 0.6 0 1.2 -0.1 1.8 -0.2 0.1 0.7 0.2 1.5 0.2 2.2 0 6.6 -5.4 12 -12 12 z M 22.2 16.2 C 18.7 17 16 20.2 16 24 c 0 4.4 3.6 8 8 8 3.8 0 7 -2.7 7.8 -6.2 -4.9 -0.9 -8.7 -4.7 -9.6 -9.6 z" class="style0"/>
</svg>