<svg xmlns:dc="http://purl.org/dc/elements/1.1/" xmlns:cc="http://creativecommons.org/ns#" xmlns:rdf="http://www.w3.org/1999/02/22-rdf-syntax-ns#" xmlns:svg="http://www.w3.org/2000/svg" xmlns="http://www.w3.org/2000/svg" version="1.1" width="58" height="52" viewBox="0 0 57.994999 51.994999" xml:space="preserve"><style>
	.style0{
		fill:	#ffffff;
		fill-rule:	evenodd;
	}
</style><metadata><rdf:RDF><cc:Work rdf:about=""><dc:format>image/svg+xml</dc:format><dc:type rdf:resource="http://purl.org/dc/dcmitype/StillImage"/><dc:title/></cc:Work></rdf:RDF></metadata><defs/>
<path d="M 48 12 H 10 C 8.9 12 8 11.1 8 10 8 8.9 8.9 8 10 8 h 38 c 1.1 0 2 0.9 2 2 0 1.1 -0.9 2 -2 2 z m -36 4 h 30 c 1.1 0 2 0.9 2 2 0 1.1 -0.9 2 -2 2 H 12 c -1.1 0 -2 -0.9 -2 -2 0 -1.1 0.9 -2 2 -2 z m 12 8 h 22 c 1.1 0 2 0.9 2 2 0 1.1 -0.9 2 -2 2 H 24 c -1.1 0 -2 -0.9 -2 -2 0 -1.1 0.9 -2 2 -2 z m 2 16 h 6 c 1.1 0 2 0.9 2 2 0 1.1 -0.9 2 -2 2 h -6 c -1.1 0 -2 -0.9 -2 -2 0 -1.1 0.9 -2 2 -2 z m 1 -6 c 0 -1.1 0.9 -2 2 -2 h 14 c 1.1 0 2 0.9 2 2 0 1.1 -0.9 2 -2 2 H 29 c -1.1 0 -2 -0.9 -2 -2 z" class="style0"/>
</svg>