<svg xmlns:dc="http://purl.org/dc/elements/1.1/" xmlns:cc="http://creativecommons.org/ns#" xmlns:rdf="http://www.w3.org/1999/02/22-rdf-syntax-ns#" xmlns:svg="http://www.w3.org/2000/svg" xmlns="http://www.w3.org/2000/svg" version="1.1" width="70" height="64" viewBox="0 0 69.992996 63.993999" xml:space="preserve"><style>
	.style0{
		fill:	#ffffff;
		fill-rule:	evenodd;
	}
</style><metadata><rdf:RDF><cc:Work rdf:about=""><dc:format>image/svg+xml</dc:format><dc:type rdf:resource="http://purl.org/dc/dcmitype/StillImage"/><dc:title/></cc:Work></rdf:RDF></metadata><defs/>
<path d="m 56.7 43.9 v 0.1 h -0.7 -3 c -1.1 0 -2 -0.9 -2 -2 0 -1.1 0.9 -2 2 -2 h 3 c 1.1 0 2 -0.9 2 -2 0 -1.1 -0.9 -2 -2 -2 -1.1 0 -2 -0.9 -2 -2 0 -1.1 0.9 -2 2 -2 0.1 0 0.3 0 0.4 0 3.1 0.2 5.6 2.8 5.6 6 0 3.1 -2.3 5.6 -5.2 5.9 z M 46 32 c -1.1 0 -2 -0.9 -2 -2 0 -1.1 0.9 -2 2 -2 0.1 0 0.3 0 0.4 0 3.1 0.2 5.6 2.8 5.6 6 0 3.1 -2.3 5.6 -5.2 5.9 v 0.1 h -0.8 -8 c -4 0 -11.4 0 -14 0 -1.1 0 -2 0.9 -2 2 0 1.1 0.9 2 2 2 h 22 0.8 v 0.1 c 3 0.4 5.2 2.9 5.2 5.9 0 3.2 -2.5 5.7 -5.6 6 -0.1 0 -0.3 0 -0.4 0 -1.1 0 -2 -0.9 -2 -2 0 -1.1 0.9 -2 2 -2 1.1 0 2 -0.9 2 -2 0 -1.1 -0.9 -2 -2 -2 h -22 -0.8 v -0.1 c -3 -0.4 -5.2 -2.9 -5.2 -5.9 0 -1.1 0.3 -2 0.8 -2.9 C 12.5 36.9 8 31 8 24 8 15.2 15.2 8 24 8 c 6 0 11.2 3.3 14 8.2 0.7 -0.1 1.3 -0.2 2 -0.2 5.9 0 10.8 4.3 11.8 9.9 -1.4 -1 -3 -1.6 -4.8 -1.8 -1.4 -2.4 -4 -4 -6.9 -4 -1.6 0 -3.1 0.5 -4.3 1.3 -1.2 -5.3 -6 -9.3 -11.7 -9.3 -6.6 0 -12 5.4 -12 12 0 6.6 5.4 12 12 12 2.6 0 8.2 0 12.2 0 h 9.8 c 1.1 0 2 -0.9 2 -2 0 -1.1 -0.9 -2 -2 -2 z" class="style0"/>
</svg>